<svg xmlns="http://www.w3.org/2000/svg" version="1.1" xmlns:xlink="http://www.w3.org/1999/xlink" width="512" height="512" x="0" y="0" viewBox="0 0 512 512" style="enable-background:new 0 0 512 512" xml:space="preserve" class=""><g><path d="M384.628 381.06V504.5H42.948V38.56h127.29M384.628 348.37v-80.22M257.338 38.56H384.628v135.8" style="stroke-linecap: round; stroke-linejoin: round; stroke-miterlimit: 10;" fill="none" stroke="#299CDB" stroke-width="15px" stroke-linecap="round" stroke-linejoin="round" stroke-miterlimit="10" data-original="#000000" opacity="1" class=""></path><path d="M133.788 473.44h-58.93V69.63h61.27M352.718 323.44v150h-186.24M291.438 69.63h61.28v160M136.131 162.828l15.531 15.516 31.062-31.062M136.131 224.953l15.531 15.516 31.062-31.062M229.317 162.813h76.906M136.131 287.077l15.531 15.516 31.062-31.062M229.317 287.062h76.906M136.131 349.202l15.531 15.516 31.062-31.062M229.317 349.187h63.205M136.131 411.326l15.531 15.516 31.062-31.062M229.317 411.311H274.9M229.317 224.938h76.906" style="stroke-linecap: round; stroke-linejoin: round; stroke-miterlimit: 10;" fill="none" stroke="#299CDB" stroke-width="15px" stroke-linecap="round" stroke-linejoin="round" stroke-miterlimit="10" data-original="#000000" opacity="1" class=""></path><path d="M230.128 100.69h46.31c8.29 0 15-6.72 15-15V53.56c0-8.28-6.71-15-15-15h-19.1c-6.39 0-12.09-4.03-14.16-10.07-4.19-12.21-15.76-20.99-29.39-20.99-6.81 0-13.12 2.2-18.24 5.92a31.092 31.092 0 0 0-11.15 15.07c-2.07 6.04-7.78 10.07-14.16 10.07h-19.11c-8.28 0-15 6.72-15 15v32.13c0 8.28 6.72 15 15 15h46.32M213.786 38.564h0M282.676 397.843h0c-7.428-4.289-9.974-13.787-5.685-21.216l15.531-26.901 26.901 15.531-15.531 26.901c-4.289 7.428-13.788 9.974-21.216 5.685z" style="stroke-linecap: round; stroke-linejoin: round; stroke-miterlimit: 10;" fill="none" stroke="#299CDB" stroke-width="15px" stroke-linecap="round" stroke-linejoin="round" stroke-miterlimit="10" data-original="#000000" opacity="1" class=""></path><path d="M311.908 169.211h178.46v46.9h-178.46z" style="stroke-linecap: round; stroke-linejoin: round; stroke-miterlimit: 10;" transform="rotate(-60 401.144 192.67)" fill="none" stroke="#299CDB" stroke-width="15px" stroke-linecap="round" stroke-linejoin="round" stroke-miterlimit="10" data-original="#000000" opacity="1" class=""></path><path d="m459.203 123.151-26.901-15.531 7.766-13.45c4.289-7.428 13.787-9.974 21.216-5.685h0c7.428 4.289 9.974 13.787 5.685 21.216l-7.766 13.45zM423.075 263.696l39.093-67.712c4.142-7.174 1.684-16.348-5.49-20.49l-54.261-31.328M282.676 397.843l-7.776 13.468" style="stroke-linecap: round; stroke-linejoin: round; stroke-miterlimit: 10;" fill="none" stroke="#299CDB" stroke-width="15px" stroke-linecap="round" stroke-linejoin="round" stroke-miterlimit="10" data-original="#000000" opacity="1" class=""></path><path d="M307.795 263.16h46.907v101.105h-46.907z" style="stroke-linecap: round; stroke-linejoin: round; stroke-miterlimit: 10;" transform="rotate(30 331.26 313.692)" fill="none" stroke="#299CDB" stroke-width="15px" stroke-linecap="round" stroke-linejoin="round" stroke-miterlimit="10" data-original="#000000" opacity="1" class=""></path></g></svg>