<svg width="124" height="126" viewBox="0 0 124 126" fill="none" xmlns="http://www.w3.org/2000/svg">
<path d="M124 63C124 97.2417 97.2417 125 63 125C28.7583 125 1 97.2417 1 63C1 28.7583 29.5 2 63 1C97.5 2.5 124 28.7583 124 63Z" fill="#2B2B2A"/>
<path d="M117.83 87.0793C118.256 87.146 118.586 87.2226 118.82 87.3093C118.919 87.346 119.009 87.4029 119.085 87.4766C119.161 87.5503 119.222 87.6392 119.262 87.7377C119.302 87.8363 119.322 87.9423 119.32 88.0492C119.318 88.1562 119.294 88.2617 119.25 88.3593C112.71 102.246 102.88 112.386 89.7595 118.779C38.4595 143.789 -17.2805 91.5793 5.81952 38.4893C15.9795 15.1593 39.38 -0.39 65 1C65.4667 1.02667 65.5162 1.56598 65.2295 1.93931C56.0762 13.886 50.1028 27.2693 47.3095 42.0893C47.2428 42.4693 47.0162 42.6893 46.6295 42.7493C30.8895 44.9793 21.5895 60.3193 27.8195 75.1693C33.8795 89.5893 52.2695 93.3793 64.1895 83.5593C64.2512 83.5071 64.3255 83.4721 64.4051 83.4577C64.4846 83.4434 64.5665 83.4502 64.6425 83.4776C64.7186 83.505 64.7861 83.5519 64.8382 83.6136C64.8903 83.6754 64.9253 83.7498 64.9395 83.8293C65.8062 88.1693 67.0962 92.3826 68.8095 96.4693C68.8704 96.6104 68.8946 96.7647 68.8798 96.9177C68.865 97.0707 68.8117 97.2174 68.7248 97.3443C68.6379 97.4711 68.5203 97.5738 68.383 97.6429C68.2457 97.712 68.0931 97.7451 67.9395 97.7393C65.9862 97.6727 64.4695 98.4093 63.3895 99.9493C63.1962 100.223 63.1729 100.513 63.3195 100.819C66.6095 107.449 89.6595 114.359 94.5695 108.439C94.7962 108.173 94.8429 107.876 94.7095 107.549C92.1595 101.359 79.6395 98.3793 73.6995 97.7093C73.5337 97.6912 73.3758 97.6265 73.2434 97.5223C73.1109 97.4181 73.0092 97.2786 72.9495 97.1193C70.8362 91.4393 69.2595 85.6126 68.2195 79.6393C68.1619 79.3117 68.2299 78.9786 68.4095 78.7093C76.4795 66.2593 71.7395 50.9693 58.5695 44.5793C58.4288 44.5142 58.3174 44.3986 58.2565 44.2547C58.1956 44.1108 58.1896 43.9487 58.2395 43.7993C63.2395 29.4993 69.9929 16.076 78.4995 3.52931C78.5602 3.44159 78.6469 3.37512 78.7474 3.33924C78.8478 3.30337 78.957 3.2999 79.0595 3.32931C98.1662 9.08264 111.75 21.056 119.81 39.2493C119.847 39.338 119.86 39.4355 119.846 39.5309C119.831 39.6262 119.791 39.7158 119.729 39.7894C119.666 39.8631 119.585 39.918 119.493 39.948C119.401 39.978 119.303 39.9819 119.21 39.9593C107.63 37.1893 90.3195 37.7793 81.5195 46.7493C75.8495 52.5193 76.7895 59.9793 81.0195 66.4793C88.5995 78.1393 104.62 84.9093 117.83 87.0793Z" fill="#6E95CF"/>
<path d="M49.0898 72.1298C52.5637 72.1298 55.3798 69.3137 55.3798 65.8398C55.3798 62.3659 52.5637 59.5498 49.0898 59.5498C45.6159 59.5498 42.7998 62.3659 42.7998 65.8398C42.7998 69.3137 45.6159 72.1298 49.0898 72.1298Z" fill="#6E95CF"/>
</svg>
