<svg width="120" height="125" viewBox="0 0 120 125" fill="none" xmlns="http://www.w3.org/2000/svg">
<g clip-path="url(#clip0_544_167)">
<path d="M117.83 86.0799C118.256 86.1466 118.586 86.2232 118.82 86.3099C118.919 86.3465 119.009 86.4035 119.085 86.4772C119.161 86.5509 119.222 86.6398 119.262 86.7383C119.302 86.8368 119.322 86.9429 119.32 87.0498C119.318 87.1568 119.294 87.2623 119.25 87.3599C112.71 101.247 102.88 111.387 89.7595 117.78C38.4595 142.79 -17.2805 90.5799 5.81952 37.4899C15.9795 14.1599 39.3395 -1.05012 64.9595 0.339879C65.4262 0.366546 65.5162 0.566552 65.2295 0.939885C56.0762 12.8866 50.1028 26.2699 47.3095 41.0899C47.2428 41.4699 47.0162 41.6899 46.6295 41.7499C30.8895 43.9799 21.5895 59.3199 27.8195 74.1699C33.8795 88.5899 52.2695 92.3799 64.1895 82.5599C64.2512 82.5077 64.3255 82.4726 64.4051 82.4583C64.4846 82.4439 64.5665 82.4508 64.6425 82.4782C64.7186 82.5055 64.7861 82.5525 64.8382 82.6142C64.8903 82.6759 64.9253 82.7503 64.9395 82.8299C65.8062 87.1699 67.0962 91.3832 68.8095 95.4699C68.8704 95.611 68.8946 95.7653 68.8798 95.9183C68.865 96.0713 68.8117 96.218 68.7248 96.3448C68.6379 96.4716 68.5203 96.5744 68.383 96.6435C68.2457 96.7125 68.0931 96.7457 67.9395 96.7399C65.9862 96.6732 64.4695 97.4099 63.3895 98.9499C63.1962 99.2232 63.1729 99.5132 63.3195 99.8199C66.6095 106.45 89.6595 113.36 94.5695 107.44C94.7962 107.173 94.8429 106.877 94.7095 106.55C92.1595 100.36 79.6395 97.3799 73.6995 96.7099C73.5337 96.6918 73.3758 96.627 73.2434 96.5229C73.1109 96.4187 73.0092 96.2792 72.9495 96.1199C70.8362 90.4399 69.2595 84.6132 68.2195 78.6399C68.1619 78.3123 68.2299 77.9792 68.4095 77.7099C76.4795 65.2599 71.7395 49.9699 58.5695 43.5799C58.4288 43.5148 58.3174 43.3992 58.2565 43.2553C58.1956 43.1114 58.1896 42.9492 58.2395 42.7999C63.2395 28.4999 69.9929 15.0765 78.4995 2.52988C78.5602 2.44217 78.6469 2.3757 78.7474 2.33982C78.8478 2.30394 78.957 2.30047 79.0595 2.32988C98.1662 8.08322 111.75 20.0565 119.81 38.2499C119.847 38.3386 119.86 38.436 119.846 38.5314C119.831 38.6268 119.791 38.7163 119.729 38.79C119.666 38.8637 119.585 38.9186 119.493 38.9486C119.401 38.9786 119.303 38.9825 119.21 38.9599C107.63 36.1899 90.3195 36.7799 81.5195 45.7499C75.8495 51.5199 76.7895 58.9799 81.0195 65.4799C88.5995 77.1399 104.62 83.9099 117.83 86.0799Z" fill="white"/>
<path d="M49.0898 71.1298C52.5637 71.1298 55.3798 68.3137 55.3798 64.8398C55.3798 61.3659 52.5637 58.5498 49.0898 58.5498C45.6159 58.5498 42.7998 61.3659 42.7998 64.8398C42.7998 68.3137 45.6159 71.1298 49.0898 71.1298Z" fill="white"/>
</g>
<defs>
<clipPath id="clip0_544_167">
<rect width="120" height="125" fill="white"/>
</clipPath>
</defs>
</svg>
